<svg id="Capa_1" data-name="Capa 1" xmlns="http://www.w3.org/2000/svg" viewBox="0 0 511.83 511.83"><defs><style>.cls-1{fill:#fff;}</style></defs><title>icon</title><circle class="cls-1" cx="255.92" cy="255.92" r="255.92"/><path d="M310.38,271.6,287.51,201a12.58,12.58,0,0,0-15.72-8.11C248.65,200.2,224,208.26,201,215.8a12.58,12.58,0,0,0-8,15.8l22.86,70.62a12.59,12.59,0,0,0,12,8.67,12.08,12.08,0,0,0,3.84-.6l70.62-22.87a12.55,12.55,0,0,0,8.07-15.82Zm-74.44,10.9-15.15-46.75c15.35-5,31.23-10.2,46.7-15.13l15.13,46.78Z"/><path d="M450.34,261.37a45,45,0,0,0-22.59-26.73,45.64,45.64,0,0,0-35.52-2.79L370.55,239l-15.33-47c13.57-4.45,21.86-7.08,21.86-7.08a45.09,45.09,0,0,0,26.7-22.59,46.17,46.17,0,0,0-55.27-65.14l-21.7,7.13c-4.45-13.59-7.09-21.9-7.14-22A46.29,46.29,0,0,0,261.51,53a45.06,45.06,0,0,0-26.73,22.61,45.82,45.82,0,0,0-2.79,35.5l7.14,21.71-47,15.3c-4.45-13.57-7.09-21.84-7.09-21.84A45.06,45.06,0,0,0,162.45,99.5a46.18,46.18,0,0,0-65.14,55.25l7.16,22-23.26,7.53c-22.67,8-35.3,32.56-28.72,56.1a47.49,47.49,0,0,0,23,28.19,44.86,44.86,0,0,0,34.72,3.29s8.57-2.89,22.66-7.43l15.28,46.72-23.34,7.57c-22.59,8.21-35.17,32.86-28.62,56.3a47,47,0,0,0,23.17,28.26,44.24,44.24,0,0,0,34.49,3l22.94-7.41,7.56,23.29a46,46,0,0,0,43.51,30.42,43.67,43.67,0,0,0,12.56-1.78,47.55,47.55,0,0,0,28.19-23A44.67,44.67,0,0,0,271.91,393s-2.86-8.64-7.48-22.78c15.37-5,31.27-10.13,46.78-15.18l7.56,23.37A46.53,46.53,0,0,0,375.07,407a47.14,47.14,0,0,0,28.26-23.19,44.25,44.25,0,0,0,3-34.54s-2.87-8.57-7.42-22.63c13.62-4.48,21.94-7.11,22-7.16A46.31,46.31,0,0,0,450.34,261.37Zm-37.06,34.24s-13.39,4.27-34,11.08a12.6,12.6,0,0,0-8,15.75c6.79,21.16,11.33,34.77,11.33,34.77a19.18,19.18,0,0,1-1.38,15,21.81,21.81,0,0,1-13,10.71c-10.78,3-22-2.74-25.63-12.62L331.3,335.38a12.54,12.54,0,0,0-15.82-8.09l-10.93,3.57c-19.85,6.46-40.37,13.17-59.64,19.3a12.6,12.6,0,0,0-8.75,12v.35a12,12,0,0,0,.56,3.64c0,.05,0,.08,0,.13,6.76,21,11.28,34.54,11.28,34.57A19.56,19.56,0,0,1,246.46,416a21.89,21.89,0,0,1-12.93,10.68c-10.61,3-21.86-2.71-25.38-12.64l-11.3-34.92a12.61,12.61,0,0,0-12-8.69,12.17,12.17,0,0,0-3.85.63l-35,11.33a19.4,19.4,0,0,1-15-1.38,21.7,21.7,0,0,1-10.7-13c-3-10.7,2.74-22,12.61-25.62l34.92-11.28a12.65,12.65,0,0,0,7.34-6.26,12.51,12.51,0,0,0,.72-9.6l-23.11-70.62a12.63,12.63,0,0,0-15.78-8c-21,6.76-34.57,11.28-34.57,11.28a19.6,19.6,0,0,1-15.17-1.55,21.94,21.94,0,0,1-10.68-13c-3-10.67,2.72-21.85,12.64-25.37l34.92-11.31a12.55,12.55,0,0,0,8.07-15.82L121.2,146.94a20.9,20.9,0,0,1,13.59-26.36A20.92,20.92,0,0,1,151,121.84a20.16,20.16,0,0,1,10.12,12s4.27,13.34,11.08,34a12.52,12.52,0,0,0,15.83,8l70.84-23.09a12.78,12.78,0,0,0,7.32-6.28,12.54,12.54,0,0,0,.7-9.59l-11-33.67A21,21,0,0,1,257.12,87a20.17,20.17,0,0,1,12-10.15,20.94,20.94,0,0,1,26.63,13.24s4.3,13.36,11.15,34a12.59,12.59,0,0,0,15.86,8L356.45,121a21.09,21.09,0,0,1,25.07,29.77,20.09,20.09,0,0,1-12,10.13s-13.39,4.27-34,11.08a12.6,12.6,0,0,0-8,15.83l23.11,70.84a12.63,12.63,0,0,0,6.26,7.31,12.45,12.45,0,0,0,9.62.71l33.67-11a20.9,20.9,0,0,1,16.2,1.28,20.22,20.22,0,0,1,10.12,12A20.88,20.88,0,0,1,413.28,295.61Z"/></svg>