<svg id="Layer_1" data-name="Layer 1" xmlns="http://www.w3.org/2000/svg" viewBox="0 0 32 32"><defs><style>.cls-1{fill:#fff;}</style></defs><title>icon</title><circle class="cls-1" cx="16" cy="16" r="16"/><path d="M25,6.5a2.35,2.35,0,0,0-.77.18h0l-3,1.26-6,2.53-8.56,3.6.06,0a2.62,2.62,0,0,0-.6.31,1.58,1.58,0,0,0-.48.46,1.32,1.32,0,0,0-.22.9,1.61,1.61,0,0,0,.73,1.14,2.17,2.17,0,0,0,.54.29h0l4,1.34c.17.57,1.21,4,1.46,4.75a3.09,3.09,0,0,0,.46,1,1.22,1.22,0,0,0,.31.29l.15.07,0,0h0l.09,0a1.36,1.36,0,0,0,1.14-.2l0,0,2.35-2.14,3.94,3,.09,0a2.13,2.13,0,0,0,2.09-.2,2.07,2.07,0,0,0,.61-.81l0-.07,3-15.58a2.24,2.24,0,0,0,0-1.09A1.44,1.44,0,0,0,25,6.5Zm-.09,1.66a.42.42,0,0,1,0,.15h0l-3,15.41a.67.67,0,0,1-.1.12c-.06,0-.11.08-.38,0l-4.81-3.69-2.91,2.65.61-3.9,7.87-7.33c.32-.3.21-.37.21-.37,0-.36-.49-.1-.49-.1L12,17.23v0l-4.75-1.6h0l0,0h.06L15.86,12l6-2.53,3-1.25Z"/></svg>