<svg id="Layer_1" data-name="Layer 1" xmlns="http://www.w3.org/2000/svg" viewBox="0 0 32 32"><defs><style>.cls-1{fill:#fff;}</style></defs><title>icon</title><circle class="cls-1" cx="16" cy="16" r="16"/><path d="M24.5,7.5A11.83,11.83,0,0,0,16.05,4,12,12,0,0,0,5.69,21.92L4,28.11l6.34-1.66a11.93,11.93,0,0,0,5.71,1.45h0A12,12,0,0,0,24.5,7.5ZM16.05,25.88h0A10,10,0,0,1,11,24.5l-.36-.22-3.76,1,1-3.66-.23-.38a9.93,9.93,0,1,1,8.41,4.65Zm5.45-7.43c-.3-.15-1.77-.87-2-1s-.47-.15-.67.14-.78,1-.95,1.18-.35.22-.65.07a8.18,8.18,0,0,1-2.4-1.48,9.32,9.32,0,0,1-1.66-2.07.44.44,0,0,1,.13-.61c.14-.13.3-.35.45-.52a2.14,2.14,0,0,0,.3-.5.53.53,0,0,0,0-.52c-.07-.15-.67-1.62-.92-2.22s-.49-.5-.67-.51h-.57a1.1,1.1,0,0,0-.8.37,3.36,3.36,0,0,0-1,2.49,5.81,5.81,0,0,0,1.22,3.09,13.32,13.32,0,0,0,5.1,4.51c.71.3,1.27.49,1.7.63a4.14,4.14,0,0,0,1.88.11,3.06,3.06,0,0,0,2-1.41,2.42,2.42,0,0,0,.17-1.42C22,18.67,21.8,18.6,21.5,18.45Z"/></svg>