<svg id="Layer_1" data-name="Layer 1" xmlns="http://www.w3.org/2000/svg" viewBox="0 0 32 32"><defs><style>.cls-1{fill:#fff;}</style></defs><title>icon</title><circle class="cls-1" cx="16" cy="16" r="16"/><path d="M16,4A11.77,11.77,0,0,0,4,15.5,11.22,11.22,0,0,0,8,24v4.62l1.44-.71,3-1.5A12.29,12.29,0,0,0,16,27,11.77,11.77,0,0,0,28,15.5,11.77,11.77,0,0,0,16,4Zm0,2a9.75,9.75,0,0,1,10,9.5A9.75,9.75,0,0,1,16,25a10.66,10.66,0,0,1-3.41-.59l-.4-.13-.38.19L10,25.38V23.12l-.38-.31A9.28,9.28,0,0,1,6,15.5,9.75,9.75,0,0,1,16,6Zm-1.12,6.34-6,6.38,5.41-3,2.87,3.09,6-6.47-5.28,3Z"/></svg>